<?xml version="1.0" encoding="utf-8"?>
<!-- Generator: Adobe Illustrator 23.1.0, SVG Export Plug-In . SVG Version: 6.00 Build 0)  -->
<svg version="1.1" id="Слой_1" xmlns="http://www.w3.org/2000/svg" xmlns:xlink="http://www.w3.org/1999/xlink" x="0px" y="0px"
	 viewBox="0 0 24 24" style="enable-background:new 0 0 24 24;" xml:space="preserve">
<style type="text/css">
	.st0{fill:#1678F3;}
</style>
<path class="st0" d="M12,17c0.3,0,0.5-0.1,0.7-0.3c0.2-0.2,0.3-0.4,0.3-0.7v-4c0-0.3-0.1-0.5-0.3-0.7S12.3,11,12,11
	s-0.5,0.1-0.7,0.3S11,11.7,11,12v4c0,0.3,0.1,0.5,0.3,0.7C11.5,16.9,11.7,17,12,17z M12,9c0.3,0,0.5-0.1,0.7-0.3S13,8.3,13,8
	s-0.1-0.5-0.3-0.7C12.5,7.1,12.3,7,12,7s-0.5,0.1-0.7,0.3C11.1,7.5,11,7.7,11,8s0.1,0.5,0.3,0.7S11.7,9,12,9z M12,22
	c-1.4,0-2.7-0.3-3.9-0.8S5.8,20,4.9,19.1s-1.6-2-2.1-3.2S2,13.4,2,12s0.3-2.7,0.8-3.9S4,5.8,4.9,4.9s2-1.6,3.2-2.1S10.6,2,12,2
	s2.7,0.3,3.9,0.8s2.3,1.2,3.2,2.1s1.6,2,2.1,3.2S22,10.6,22,12s-0.3,2.7-0.8,3.9s-1.2,2.3-2.1,3.2c-0.9,0.9-2,1.6-3.2,2.1
	S13.4,22,12,22z M12,20c2.2,0,4.1-0.8,5.7-2.3c1.5-1.5,2.3-3.4,2.3-5.7s-0.8-4.1-2.3-5.7C16.1,4.8,14.2,4,12,4S7.9,4.8,6.3,6.3
	S4,9.8,4,12s0.8,4.1,2.3,5.7C7.9,19.2,9.8,20,12,20z"/>
</svg>
